<svg width="512" height="1022" viewBox="0 0 512 1022" fill="none" xmlns="http://www.w3.org/2000/svg">
<g clip-path="url(#clip0_4803_91)">
<rect width="1022" height="1022" transform="translate(-510)" fill="white"/>
<path d="M1.00027 255.5C24.288 255.5 46.2451 252.173 66.8713 245.52C87.4977 238.866 108.124 231.547 128.75 223.562C149.377 215.578 169.837 208.259 190.13 201.605C210.424 194.952 232.547 191.625 256.5 191.625V255.5C241.862 255.5 227.89 256.997 214.582 259.991C201.275 262.985 188.3 266.978 175.658 271.968C163.017 276.958 150.042 282.115 136.735 287.438C123.427 292.76 109.954 297.917 96.3137 302.907C82.6738 307.897 67.8694 311.723 51.9006 314.385C35.9319 317.046 18.9651 318.71 1.00027 319.375C-17.2972 319.375 -34.2641 317.878 -49.9001 314.884C-65.5362 311.89 -80.3406 307.897 -94.3132 302.907C-108.286 297.917 -121.593 292.76 -134.235 287.438C-146.877 282.115 -159.852 276.958 -173.159 271.968C-186.466 266.978 -199.607 263.152 -212.582 260.49C-225.556 257.829 -239.529 256.165 -254.5 255.5V191.625C-231.545 191.625 -209.588 194.952 -188.629 201.605C-167.67 208.259 -147.043 215.578 -126.75 223.562C-106.456 231.547 -85.8298 238.866 -64.8708 245.52C-43.9119 252.173 -21.9548 255.5 1.00027 255.5ZM512 288.935C512 347.819 507.675 407.702 499.026 468.583C490.376 529.464 477.734 589.846 461.1 649.729C444.466 709.611 423.507 767.664 398.223 823.888C372.939 880.111 344.162 933.174 311.892 983.076C303.907 995.053 293.761 1004.53 281.451 1011.52C269.142 1018.51 255.669 1022 241.031 1022C222.733 1022 206.265 1016.84 191.627 1006.53C176.989 996.217 166.842 982.244 161.187 964.612L72.3606 699.132C60.7167 700.463 48.9065 701.294 36.9299 701.627C24.9534 701.96 12.9768 702.292 1.00027 702.625C-10.9763 702.625 -22.9529 702.459 -34.9294 702.126C-46.906 701.793 -58.7162 700.795 -70.3601 699.132L-159.186 964.612C-164.842 981.912 -174.989 995.718 -189.627 1006.03C-204.265 1016.34 -220.733 1021.67 -239.03 1022C-253.668 1022 -267.142 1018.51 -279.451 1011.52C-291.76 1004.53 -301.907 995.053 -309.891 983.076C-342.494 933.507 -371.271 880.61 -396.222 824.387C-421.174 768.163 -441.966 710.11 -458.6 650.228C-475.234 590.345 -488.043 529.963 -497.025 469.082C-506.008 408.201 -510.332 348.152 -510 288.935C-510 251.674 -504.344 215.744 -493.033 181.146C-481.722 146.547 -465.254 115.773 -443.63 88.8262C-422.005 61.8789 -395.391 40.4209 -363.786 24.4521C-332.181 8.4834 -296.085 0.332682 -255.498 0C-231.877 0 -209.754 3.32682 -189.128 9.98047C-168.501 16.6341 -147.875 23.9531 -127.249 31.9375C-106.622 39.9219 -86.1625 47.2409 -65.8689 53.8945C-45.5753 60.5482 -23.2855 63.875 1.00027 63.875C24.6207 63.875 46.7441 60.5482 67.3704 53.8945C87.9967 47.2409 108.623 39.9219 129.249 31.9375C149.876 23.9531 170.336 16.6341 190.629 9.98047C210.923 3.32682 233.213 0 257.498 0C298.086 0 334.182 7.98438 365.786 23.9531C397.391 39.9219 424.006 61.3799 445.63 88.3271C467.255 115.274 483.722 146.048 495.033 180.646C506.345 215.245 512 251.341 512 288.935ZM448.125 289.933C448.125 258.993 443.967 229.883 435.65 202.604C427.333 175.324 414.857 151.37 398.223 130.744C381.589 110.118 360.63 93.8164 335.346 81.8398C310.062 69.8633 280.952 63.875 248.017 63.875C228.721 63.875 210.257 67.2018 192.625 73.8555C174.993 80.5091 156.363 87.8281 136.735 95.8125C117.106 103.797 96.4801 111.116 74.8557 117.77C53.2314 124.423 28.6129 127.75 1.00027 127.75C-26.6124 127.75 -51.2309 124.423 -72.8552 117.77C-94.4796 111.116 -115.106 103.797 -134.734 95.8125C-154.362 87.8281 -173.325 80.5091 -191.623 73.8555C-209.92 67.2018 -230.214 63.875 -252.504 63.875C-284.774 63.875 -313.052 70.196 -337.338 82.8379C-361.623 95.4798 -381.751 112.28 -397.719 133.239C-413.688 154.198 -425.831 178.151 -434.148 205.099C-442.465 232.046 -446.457 260.324 -446.125 289.933C-446.125 322.535 -444.295 357.633 -440.635 395.227C-436.976 432.82 -431.32 471.743 -423.669 511.998C-416.017 552.253 -406.868 592.341 -396.222 632.263C-385.577 672.185 -373.101 711.441 -358.796 750.032C-344.49 788.623 -328.688 824.553 -311.388 857.821C-294.089 891.09 -275.459 921.364 -255.498 948.644C-250.508 954.965 -244.187 958.125 -236.535 958.125C-232.543 958.125 -227.386 952.137 -221.065 940.16C-214.744 928.184 -208.091 912.548 -201.104 893.252C-194.118 873.956 -186.633 852.997 -178.648 830.375C-170.664 807.753 -163.511 785.629 -157.19 764.005C-150.869 742.381 -144.715 722.752 -138.726 705.12C-132.738 687.488 -128.746 674.68 -126.75 666.695C-124.088 658.046 -119.098 650.56 -111.779 644.239C-104.46 637.918 -95.8103 634.591 -85.8298 634.259C-71.1918 634.259 -56.7201 634.924 -42.4148 636.255C-28.1095 637.586 -13.6378 638.417 1.00027 638.75C15.6383 638.75 30.11 638.085 44.4153 636.754C58.7206 635.423 73.1923 634.591 87.8303 634.259C97.4781 634.259 105.962 637.419 113.281 643.74C120.6 650.061 125.756 657.713 128.75 666.695C131.412 674.68 135.404 687.488 140.727 705.12C146.05 722.752 152.038 742.214 158.692 763.506C165.345 784.798 172.664 807.087 180.649 830.375C188.633 853.663 195.952 874.622 202.606 893.252C209.259 911.882 216.079 927.352 223.066 939.661C230.052 951.97 235.209 958.125 238.535 958.125C246.187 958.125 252.508 954.965 257.498 948.644C277.459 922.029 296.089 891.755 313.389 857.821C330.688 823.888 346.324 787.958 360.297 750.032C374.27 712.106 386.745 673.016 397.724 632.762C408.702 592.507 417.851 552.419 425.17 512.497C432.489 472.575 438.145 433.651 442.137 395.726C446.129 357.8 448.125 322.535 448.125 289.933Z" fill="#E0F9FF" fill-opacity="0.29"/>
</g>
<defs>
<clipPath id="clip0_4803_91">
<rect width="1022" height="1022" fill="white" transform="translate(-510)"/>
</clipPath>
</defs>
</svg>
