<svg width="31" height="31" viewBox="0 0 31 31" fill="none" xmlns="http://www.w3.org/2000/svg">
<path d="M27.1254 3.875L18.7296 27.125C18.6729 27.2487 18.5819 27.3535 18.4674 27.4269C18.3529 27.5004 18.2198 27.5395 18.0837 27.5395C17.9477 27.5395 17.8145 27.5004 17.7 27.4269C17.5856 27.3535 17.4946 27.2487 17.4379 27.125L12.9171 18.0833L3.8754 13.5625C3.75173 13.5058 3.64693 13.4148 3.57346 13.3004C3.49999 13.1859 3.46094 13.0527 3.46094 12.9167C3.46094 12.7806 3.49999 12.6475 3.57346 12.533C3.64693 12.4185 3.75173 12.3275 3.8754 12.2708L27.1254 3.875Z" stroke="#B8F0FD" stroke-width="2" stroke-linecap="round" stroke-linejoin="round"/>
</svg>
