<svg width="63" height="54" viewBox="0 0 63 54" fill="none" xmlns="http://www.w3.org/2000/svg">
<path d="M18.9 0C8.4777 0 0 8.38454 0 18.6923V20.7692C0 24.1962 2.835 27 6.3 27C7.917 27 9.387 26.3769 10.5 25.38C11.613 26.3769 13.083 27 14.7 27H16.8C18.417 27 19.887 26.3769 21 25.38C22.113 26.3769 23.583 27 25.2 27H27.3C28.917 27 30.387 26.3769 31.5 25.38C32.613 26.3769 34.083 27 35.7 27H37.8C39.417 27 40.887 26.3769 42 25.38C43.113 26.3769 44.583 27 46.2 27H48.3C49.917 27 51.387 26.3769 52.5 25.38C53.613 26.3769 55.083 27 56.7 27C60.165 27 63 24.1962 63 20.7692V18.6923C63 8.38454 54.5223 0 44.1 0H18.9ZM18.9 4.15385H44.1C49.9758 4.15385 55.0473 7.58908 57.3972 12.5301C57.1662 12.5052 56.9373 12.4615 56.7 12.4615C55.419 12.4615 54.243 12.8354 53.256 13.4792C52.5804 12.5237 51.6816 11.7434 50.6361 11.2047C49.5905 10.666 48.429 10.3846 47.25 10.3846C45.654 10.3846 44.184 10.9038 42.987 11.7554C42.3276 10.7054 41.4095 9.83823 40.3185 9.23519C39.2276 8.63216 37.9997 8.31301 36.75 8.30769C34.692 8.30769 32.844 9.15923 31.5 10.5092C30.8175 9.8147 30.0014 9.26214 29.0998 8.88407C28.1982 8.50599 27.2293 8.31003 26.25 8.30769C23.625 8.30769 21.315 9.69923 20.013 11.7554C18.816 10.9038 17.346 10.3846 15.75 10.3846C13.272 10.3846 11.067 11.61 9.744 13.4792C8.757 12.8354 7.581 12.4615 6.3 12.4615C6.0627 12.4615 5.8338 12.5031 5.6028 12.5301C7.9548 7.58908 13.0242 4.15385 18.9 4.15385ZM26.25 12.4615C27.993 12.4615 29.4 13.8531 29.4 15.5769V20.7692C29.4 21.9115 28.455 22.8462 27.3 22.8462H25.2C24.045 22.8462 23.1 21.9115 23.1 20.7692V15.5769C23.1 13.8531 24.507 12.4615 26.25 12.4615ZM36.75 12.4615C38.493 12.4615 39.9 13.8531 39.9 15.5769V20.7692C39.9 21.9115 38.955 22.8462 37.8 22.8462H35.7C34.545 22.8462 33.6 21.9115 33.6 20.7692V15.5769C33.6 13.8531 35.007 12.4615 36.75 12.4615ZM15.75 14.5385C17.493 14.5385 18.9 15.93 18.9 17.6538V20.7692C18.9 21.9115 17.955 22.8462 16.8 22.8462H14.7C13.545 22.8462 12.6 21.9115 12.6 20.7692V17.6538C12.6 15.93 14.007 14.5385 15.75 14.5385ZM47.25 14.5385C48.993 14.5385 50.4 15.93 50.4 17.6538V20.7692C50.4 21.9115 49.455 22.8462 48.3 22.8462H46.2C45.045 22.8462 44.1 21.9115 44.1 20.7692V17.6538C44.1 15.93 45.507 14.5385 47.25 14.5385ZM6.3 16.6154C7.455 16.6154 8.4 17.55 8.4 18.6923V20.7692C8.4 21.9115 7.455 22.8462 6.3 22.8462C5.145 22.8462 4.2 21.9115 4.2 20.7692V18.6923C4.2 17.55 5.145 16.6154 6.3 16.6154ZM56.7 16.6154C57.855 16.6154 58.8 17.55 58.8 18.6923V20.7692C58.8 21.9115 57.855 22.8462 56.7 22.8462C55.545 22.8462 54.6 21.9115 54.6 20.7692V18.6923C54.6 17.55 55.545 16.6154 56.7 16.6154ZM6.3 31.1538C2.835 31.1538 0 33.9577 0 37.3846V39.4615C0 47.4764 6.5961 54 14.7 54H48.3C56.4039 54 63 47.4764 63 39.4615V37.3846C63 33.9577 60.165 31.1538 56.7 31.1538C55.083 31.1538 53.613 31.7769 52.5 32.7738C51.387 31.7769 49.917 31.1538 48.3 31.1538H46.2C44.583 31.1538 43.113 31.7769 42 32.7738C40.887 31.7769 39.417 31.1538 37.8 31.1538H35.7C34.083 31.1538 32.613 31.7769 31.5 32.7738C30.387 31.7769 28.917 31.1538 27.3 31.1538H25.2C23.583 31.1538 22.113 31.7769 21 32.7738C19.887 31.7769 18.417 31.1538 16.8 31.1538H14.7C13.083 31.1538 11.613 31.7769 10.5 32.7738C9.387 31.7769 7.917 31.1538 6.3 31.1538ZM6.3 35.3077C7.455 35.3077 8.4 36.2423 8.4 37.3846C8.4 38.5269 7.455 39.4615 6.3 39.4615C5.145 39.4615 4.2 38.5269 4.2 37.3846C4.2 36.2423 5.145 35.3077 6.3 35.3077ZM14.7 35.3077H16.8C17.955 35.3077 18.9 36.2423 18.9 37.3846V39.4615C18.9 40.6038 17.955 41.5385 16.8 41.5385C14.49 41.5385 12.6 39.6692 12.6 37.3846C12.6 36.2423 13.545 35.3077 14.7 35.3077ZM25.2 35.3077H27.3C28.455 35.3077 29.4 36.2423 29.4 37.3846V39.4615C29.4 40.6038 28.455 41.5385 27.3 41.5385H25.2C24.045 41.5385 23.1 40.6038 23.1 39.4615V37.3846C23.1 36.2423 24.045 35.3077 25.2 35.3077ZM35.7 35.3077H37.8C38.955 35.3077 39.9 36.2423 39.9 37.3846V39.4615C39.9 40.6038 38.955 41.5385 37.8 41.5385H35.7C34.545 41.5385 33.6 40.6038 33.6 39.4615V37.3846C33.6 36.2423 34.545 35.3077 35.7 35.3077ZM46.2 35.3077H48.3C49.455 35.3077 50.4 36.2423 50.4 37.3846C50.4 39.6692 48.51 41.5385 46.2 41.5385C45.045 41.5385 44.1 40.6038 44.1 39.4615V37.3846C44.1 36.2423 45.045 35.3077 46.2 35.3077ZM56.7 35.3077C57.855 35.3077 58.8 36.2423 58.8 37.3846C58.8 38.5269 57.855 39.4615 56.7 39.4615C55.545 39.4615 54.6 38.5269 54.6 37.3846C54.6 36.2423 55.545 35.3077 56.7 35.3077ZM10.08 42.3277C11.634 44.3631 14.049 45.6923 16.8 45.6923C18.417 45.6923 19.887 45.0692 21 44.0723C22.113 45.0692 23.583 45.6923 25.2 45.6923H27.3C28.917 45.6923 30.387 45.0692 31.5 44.0723C32.613 45.0692 34.083 45.6923 35.7 45.6923H37.8C39.417 45.6923 40.887 45.0692 42 44.0723C43.113 45.0692 44.583 45.6923 46.2 45.6923C48.951 45.6923 51.366 44.3631 52.92 42.3277C53.97 43.1377 55.272 43.6154 56.7 43.6154C57.1368 43.6154 57.5673 43.5697 57.981 43.4845C57.1784 45.3687 55.8319 46.9771 54.1101 48.1086C52.3882 49.2401 50.3673 49.8444 48.3 49.8462H14.7C12.6327 49.8444 10.6118 49.2401 8.88993 48.1086C7.16806 46.9771 5.82164 45.3687 5.019 43.4845C5.4327 43.5697 5.8632 43.6154 6.3 43.6154C7.728 43.6154 9.03 43.1377 10.08 42.3277Z" fill="#DEF9FF"/>
</svg>
