<svg width="28" height="28" viewBox="0 0 28 28" fill="none" xmlns="http://www.w3.org/2000/svg">
<path d="M17.7618 27.773H10.0112C2.9969 27.773 0 24.7761 0 17.7618V10.0112C0 2.9969 2.9969 0 10.0112 0H17.7618C24.7761 0 27.773 2.9969 27.773 10.0112V17.7618C27.773 24.7761 24.7761 27.773 17.7618 27.773ZM10.0112 1.93765C4.05615 1.93765 1.93765 4.05615 1.93765 10.0112V17.7618C1.93765 23.7169 4.05615 25.8354 10.0112 25.8354H17.7618C23.7169 25.8354 25.8354 23.7169 25.8354 17.7618V10.0112C25.8354 4.05615 23.7169 1.93765 17.7618 1.93765H10.0112Z" fill="#B8F0FD"/>
<path d="M13.8865 19.3765C10.8638 19.3765 8.39648 16.9092 8.39648 13.8865C8.39648 10.8638 10.8638 8.39648 13.8865 8.39648C16.9092 8.39648 19.3765 10.8638 19.3765 13.8865C19.3765 16.9092 16.9092 19.3765 13.8865 19.3765ZM13.8865 10.3341C11.923 10.3341 10.3341 11.923 10.3341 13.8865C10.3341 15.85 11.923 17.4389 13.8865 17.4389C15.85 17.4389 17.4389 15.85 17.4389 13.8865C17.4389 11.923 15.85 10.3341 13.8865 10.3341Z" fill="#B8F0FD"/>
<path d="M20.3445 8.07296C20.1766 8.07296 20.0086 8.0342 19.8536 7.96961C19.6986 7.90503 19.5565 7.8146 19.4273 7.69834C19.3111 7.56917 19.2077 7.42707 19.1432 7.27206C19.0786 7.11705 19.0527 6.94912 19.0527 6.78119C19.0527 6.61326 19.0786 6.44533 19.1432 6.29032C19.2207 6.12239 19.3111 5.99321 19.4273 5.86403C19.4919 5.81236 19.5565 5.74777 19.6211 5.70902C19.6986 5.65735 19.7761 5.6186 19.8536 5.59276C19.9311 5.55401 20.0086 5.52817 20.0991 5.51525C20.5124 5.42483 20.9516 5.56693 21.2617 5.86403C21.3779 5.99321 21.4683 6.12239 21.5329 6.29032C21.5975 6.44533 21.6363 6.61326 21.6363 6.78119C21.6363 6.94912 21.5975 7.11705 21.5329 7.27206C21.4683 7.42707 21.3779 7.56917 21.2617 7.69834C21.1325 7.8146 20.9904 7.90503 20.8354 7.96961C20.6804 8.0342 20.5124 8.07296 20.3445 8.07296Z" fill="#B8F0FD"/>
</svg>
