<svg width="26" height="26" viewBox="0 0 26 26" fill="none" xmlns="http://www.w3.org/2000/svg">
<path d="M13 26C5.82884 26 0 20.1712 0 13C0 5.82884 5.82884 0 13 0C20.1712 0 26 5.82884 26 13C26 20.1712 20.1712 26 13 26ZM13 1.81395C6.83256 1.81395 1.81395 6.83256 1.81395 13C1.81395 19.1674 6.83256 24.186 13 24.186C19.1674 24.186 24.186 19.1674 24.186 13C24.186 6.83256 19.1674 1.81395 13 1.81395Z" fill="#B8F0FD"/>
<path d="M13.291 18.7442C10.1227 18.7442 7.54688 16.1684 7.54688 13C7.54688 9.83167 10.1227 7.25586 13.291 7.25586C14.6817 7.25586 16.0361 7.76377 17.0761 8.69493C17.451 9.02144 17.4873 9.60191 17.1608 9.97679C16.8343 10.3517 16.2538 10.388 15.8789 10.0615C15.1654 9.43262 14.2464 9.08192 13.291 9.08192C11.1264 9.08192 9.36083 10.8475 9.36083 13.0121C9.36083 15.1768 11.1264 16.9424 13.291 16.9424C14.2343 16.9424 15.1654 16.5917 15.8789 15.9628C16.2538 15.6363 16.8343 15.6726 17.1608 16.0475C17.4873 16.4224 17.451 17.0028 17.0761 17.3293C16.024 18.2363 14.6817 18.7442 13.291 18.7442Z" fill="#B8F0FD"/>
</svg>
