<svg width="30" height="30" viewBox="0 0 30 30" fill="none" xmlns="http://www.w3.org/2000/svg">
<path d="M22.4201 15.607L22.4416 15.5051V15.401C22.4416 15.1268 22.3761 14.7954 22.1792 14.5002C21.9627 14.1753 21.5778 13.8975 21.064 13.8975H18.7914V11.8698H21.1899C21.4699 11.8698 21.8636 11.7991 22.1802 11.4825C22.4968 11.1659 22.5675 10.7722 22.5675 10.4922V7.47135C22.5675 7.19134 22.4968 6.79766 22.1802 6.48105C21.8636 6.16443 21.4699 6.09375 21.1899 6.09375H17.7914C15.0994 6.09375 13.0154 8.17775 13.0154 10.8698V14.0234H11.8757C11.5956 14.0234 11.202 14.0941 10.8853 14.4107C10.5687 14.7273 10.498 15.121 10.498 15.401V17.7925C10.498 18.0725 10.5687 18.4662 10.8853 18.7828C11.202 19.0994 11.5956 19.1701 11.8757 19.1701H13.0154V27.2326V28.2326H14.0154H17.7914H18.7914V27.2326V19.0442H20.5605C20.8693 19.0442 21.1437 18.9234 21.311 18.8231C21.4089 18.7643 21.5369 18.6732 21.6525 18.5399C21.7436 18.4348 21.8865 18.2332 21.9271 17.9492L22.4201 15.607Z" stroke="#B8F0FD" stroke-width="2" stroke-miterlimit="10" stroke-linecap="round"/>
<path d="M11.4982 28.2321H19.0503C22.2956 28.2321 24.8275 27.5892 26.5228 25.8939C28.2181 24.1986 28.861 21.6667 28.861 18.4214V10.8693C28.861 7.62401 28.2181 5.09214 26.5228 3.39684C24.8275 1.70153 22.2956 1.05859 19.0503 1.05859H11.4982C8.25292 1.05859 5.72105 1.70153 4.02574 3.39684C2.33044 5.09214 1.6875 7.62401 1.6875 10.8693V18.4214C1.6875 21.6667 2.33044 24.1986 4.02574 25.8939C5.72105 27.5892 8.25292 28.2321 11.4982 28.2321Z" stroke="#B8F0FD" stroke-width="2" stroke-linecap="round" stroke-linejoin="round"/>
</svg>
