<svg width="34" height="28" viewBox="0 0 34 28" fill="none" xmlns="http://www.w3.org/2000/svg">
<path d="M25.1351 27.5066H9.71945C4.41648 27.5066 0.855469 23.9456 0.855469 18.6426V9.39328C0.855469 4.0903 4.41648 0.529297 9.71945 0.529297H25.1351C30.438 0.529297 33.999 4.0903 33.999 9.39328V18.6426C33.999 23.9456 30.438 27.5066 25.1351 27.5066ZM9.71945 2.84164C5.74222 2.84164 3.16781 5.41605 3.16781 9.39328V18.6426C3.16781 22.6199 5.74222 25.1943 9.71945 25.1943H25.1351C29.1123 25.1943 31.6867 22.6199 31.6867 18.6426V9.39328C31.6867 5.41605 29.1123 2.84164 25.1351 2.84164H9.71945Z" fill="#B8F0FD"/>
<path d="M15.2528 19.4595C14.8057 19.4595 14.3741 19.3516 13.9886 19.1358C13.0945 18.6271 12.5703 17.5942 12.5703 16.3147V11.7517C12.5703 10.4722 13.0791 9.43941 13.9886 8.9307C14.8828 8.42198 16.0388 8.51443 17.1333 9.1773L20.9411 11.4588C21.9894 12.0909 22.5904 13.0312 22.5904 14.0332C22.5904 15.0352 21.9894 15.9756 20.9411 16.6076L17.1333 18.8891C16.5013 19.2591 15.854 19.4595 15.2528 19.4595ZM15.2528 10.8885C15.1911 10.8885 15.1447 10.9039 15.1139 10.9193C15.006 10.9809 14.8826 11.2584 14.8826 11.7363V16.2993C14.8826 16.7618 15.006 17.0393 15.1139 17.1163C15.2372 17.178 15.5302 17.1472 15.9311 16.9005L19.7386 14.619C20.1239 14.3878 20.2628 14.1565 20.2628 14.0178C20.2628 13.8791 20.1239 13.6632 19.7386 13.4166L15.9311 11.1351C15.6536 10.9655 15.4069 10.8885 15.2528 10.8885Z" fill="#B8F0FD"/>
</svg>
